HIERARCHY
ROOT Hips
{
	OFFSET 0.000000 0.000000 0.000000
	CHANNELS 6 Xposition Yposition Zposition Zrotation Yrotation Xrotation 
	JOINT LHipJoint
	{
		OFFSET 0.000000 0.000000 0.000000
		CHANNELS 3 Zrotation Yrotation Xrotation
		JOINT LeftUpLeg
		{
			OFFSET 1.363060 -1.794630 0.839290
			CHANNELS 3 Zrotation Yrotation Xrotation
			JOINT LeftLeg
			{
				OFFSET 2.448110 -6.726130 0.000000
				CHANNELS 3 Zrotation Yrotation Xrotation
				JOINT LeftFoot
				{
					OFFSET 2.562200 -7.039590 0.000000
					CHANNELS 3 Zrotation Yrotation Xrotation
					JOINT LeftToeBase
					{
						OFFSET 0.157640 -0.433110 2.322550
						CHANNELS 3 Zrotation Yrotation Xrotation
						End Site
						{
							OFFSET 0.000000 0.000000 0.000000
						}
					}
				}
			}
		}
	}
	JOINT RHipJoint
	{
		OFFSET 0.000000 0.000000 0.000000
		CHANNELS 3 Zrotation Yrotation Xrotation
		JOINT RightUpLeg
		{
			OFFSET -1.305520 -1.794630 0.839290
			CHANNELS 3 Zrotation Yrotation Xrotation
			JOINT RightLeg
			{
				OFFSET -2.542530 -6.985550 0.000000
				CHANNELS 3 Zrotation Yrotation Xrotation
				JOINT RightFoot
				{
					OFFSET -2.568260 -7.056230 0.000000
					CHANNELS 3 Zrotation Yrotation Xrotation
					JOINT RightToeBase
					{
						OFFSET -0.164730 -0.452590 2.363150
						CHANNELS 3 Zrotation Yrotation Xrotation
						End Site
						{
							OFFSET 0.000000 0.000000 0.000000
						}
					}
				}
			}
		}
	}
}
MOTION
Frames: 22
Frame Time: 0.008333
4.105111 17.358445 1.228928 177.951103 -69.121227 -166.961127 -11.338253 2.781092 -0.307435 -9.719589 21.028363 -12.881900 -2.584536 -1.127092 0.438529 1.759484 12.669424 -2.203874 1.303700 -0.000000 -31.931000 9.604878 -1.583259 4.066772 -1.314723 4.641441 -15.742056 2.404704 0.714447 2.845156 1.102667 6.587264 7.092520 1.093600 0.000000 -72.887499
4.104637 17.357654 1.237173 177.595718 -69.546077 -166.415196 -11.293562 2.761998 -0.219885 -9.928933 20.415372 -13.193373 -2.577032 -1.122910 0.682717 1.783640 12.736604 -2.330560 1.291600 -0.000000 -31.748500 9.630094 -1.537513 4.006388 -1.432961 4.425625 -16.142648 2.362160 0.678751 3.399559 1.061811 6.326423 6.767231 1.007100 0.000000 -72.931400
4.103479 17.356517 1.245638 177.160290 -70.115506 -165.777991 -11.244715 2.740922 -0.108002 -10.139313 19.678046 -13.539881 -2.566630 -1.116580 0.974913 1.806562 12.781486 -2.468876 1.275300 -0.000001 -31.570100 9.657971 -1.489838 3.928881 -1.550654 4.121295 -16.506949 2.318025 0.647708 3.920031 1.012743 6.006736 6.430241 0.907700 -0.000000 -72.955200
4.101732 17.355031 1.254508 176.617591 -70.842634 -165.032218 -11.192122 2.717377 0.026926 -10.342098 18.803664 -13.893113 -2.551342 -1.108498 1.294684 1.828047 12.808051 -2.606192 1.258400 -0.000000 -31.403700 9.689252 -1.438942 3.826690 -1.667276 3.714199 -16.809875 2.272427 0.621172 4.395865 0.954732 5.628428 6.082256 0.796600 0.000000 -72.958201
4.098705 17.353215 1.263567 175.943868 -71.746615 -164.136571 -11.138124 2.692260 0.189643 -10.541094 17.812523 -14.306667 -2.536916 -1.097455 1.676732 1.841673 12.769371 -2.751598 1.233500 -0.000000 -31.259100 9.720145 -1.388850 3.711055 -1.777963 3.214814 -17.065289 2.226050 0.602918 4.810408 0.884269 5.159898 5.724737 0.666900 0.000000 -72.921600
4.094695 17.351096 1.273009 175.074705 -72.832012 -163.044881 -11.083197 2.664727 0.376346 -10.725624 16.686087 -14.719434 -2.518936 -1.085371 2.068715 1.848994 12.689010 -2.877261 1.210200 -0.000000 -31.149000 9.752240 -1.337214 3.570348 -1.886630 2.608760 -17.237949 2.178296 0.591177 5.156177 0.800857 4.609523 5.357597 0.522301 0.000000 -72.847400
4.088538 17.348737 1.282677 173.955398 -74.113440 -161.679186 -11.031645 2.635857 0.591740 -10.897748 15.459107 -15.195004 -2.504339 -1.071029 2.510157 1.841736 12.508822 -2.993905 1.179599 0.000000 -31.084700 9.779847 -1.290225 3.419605 -1.983664 1.912564 -17.348368 2.130290 0.589927 5.418708 0.700460 3.944926 4.984263 0.356200 -0.000000 -72.715800
4.080930 17.346214 1.292585 172.421005 -75.585505 -159.900763 -10.983767 2.603186 0.829975 -11.050323 14.108747 -15.650565 -2.487356 -1.057883 2.928208 1.822918 12.267721 -3.065179 1.154400 0.000000 -31.080000 9.805000 -1.245415 3.245100 -2.080302 1.112319 -17.358842 2.080408 0.595360 5.597050 0.582853 3.182422 4.603410 0.174600 -0.000001 -72.532099
4.070987 17.343534 1.302683 170.253843 -77.253571 -157.476685 -10.944735 2.565025 1.093804 -11.184636 12.664000 -16.127582 -2.472683 -1.046211 3.346157 1.786075 11.924652 -3.095278 1.128700 -0.000000 -31.143000 9.821639 -1.210196 3.059168 -2.169161 0.221243 -17.286787 2.029316 0.608961 5.684623 0.444328 2.300703 4.218538 -0.025900 0.000001 -72.284700
4.058393 17.340728 1.312971 166.997366 -79.112701 -153.950125 -10.919222 2.515172 1.381622 -11.299521 11.134641 -16.618341 -2.460668 -1.038971 3.751982 1.728285 11.470668 -3.074125 1.103300 -0.000001 -31.280900 9.825300 -1.192174 2.865855 -2.249423 -0.757588 -17.133688 1.976840 0.628305 5.680834 0.282067 1.295839 3.831062 -0.244400 0.000000 -71.971900
4.043812 17.337815 1.323148 161.560626 -81.148562 -148.251665 -10.906166 2.436458 1.685030 -11.397348 9.494099 -17.044521 -2.446838 -1.044724 4.087990 1.651333 10.944063 -2.969242 1.087600 0.000000 -31.498100 9.818180 -1.202193 2.658398 -2.339617 -1.841503 -16.877738 1.920155 0.642833 5.593378 0.093893 0.184865 3.437248 -0.473600 0.000001 -71.606400
4.027361 17.334766 1.332998 151.271369 -83.345177 -137.713639 -10.880891 2.295698 1.991940 -11.474079 7.735351 -17.376060 -2.434403 -1.077576 4.353555 1.549242 10.335888 -2.767249 1.081500 -0.000000 -31.793000 9.823027 -1.270007 2.449156 -2.436661 -3.045327 -16.523608 1.854926 0.635524 5.423042 -0.128045 -1.039362 3.032537 -0.710100 0.000000 -71.195399
4.008181 17.331411 1.342853 128.812559 -85.578169 -114.998359 -10.683525 2.079533 2.284937 -11.471395 5.883065 -17.655415 -2.444950 -1.153257 4.616080 1.410601 9.581553 -2.486653 1.074800 0.000000 -32.158899 9.990521 -1.414801 2.278540 -2.454410 -4.362742 -16.109461 1.767779 0.587527 5.162531 -0.396234 -2.414132 2.620199 -0.956601 0.000000 -70.738300
3.987597 17.327676 1.352117 85.782526 -86.863499 -71.735038 -10.042568 2.052896 2.583062 -11.303241 4.011500 -17.879147 -2.501873 -1.201956 4.741581 1.282791 8.823000 -2.160457 1.074900 0.000001 -32.586800 10.583789 -1.383003 2.081786 -2.299507 -5.685857 -15.595196 1.644543 0.569867 4.895100 -0.659468 -3.812237 2.244272 -1.203400 -0.000000 -70.256900
3.959493 17.323151 1.368239 41.147540 -85.839656 -26.716259 -9.522850 2.415215 3.276222 -10.839408 1.208614 -18.663860 -2.491359 -1.085218 5.049857 1.242674 8.243729 -1.997349 1.060300 0.000001 -32.996600 11.032557 -0.993756 1.582950 -1.828049 -7.916732 -14.999855 1.631621 0.760372 4.500008 -0.814467 -4.979482 2.057613 -1.444200 0.000000 -69.814100
3.936988 17.318069 1.376547 29.885906 -83.611166 -15.251457 -9.478682 2.529928 3.688767 -10.868467 -0.681218 -18.843933 -2.505157 -1.039528 4.854525 1.137755 7.554421 -1.525030 1.061100 0.000000 -33.520100 11.054300 -0.818661 1.231762 -1.991026 -9.274482 -14.346862 1.552168 0.849386 4.308886 -1.037116 -6.303165 1.730169 -1.684300 -0.000000 -69.322400
3.913775 17.312198 1.384472 24.252446 -80.957739 -9.427112 -9.447383 2.559799 4.091555 -10.896720 -2.636952 -18.940158 -2.522646 -1.023510 4.615928 1.011785 6.805164 -0.972383 1.055200 -0.000000 -34.070500 11.061465 -0.719260 0.894408 -2.181091 -10.710497 -13.659539 1.468889 0.903609 4.105824 -1.286432 -7.688919 1.401257 -1.920200 0.000001 -68.827200
3.890885 17.305466 1.391436 21.075487 -78.089319 -6.085016 -9.395871 2.548238 4.483848 -10.923586 -4.639055 -18.932756 -2.548313 -1.022588 4.308356 0.876264 6.037600 -0.348830 1.042700 0.000000 -34.618400 11.085745 -0.648693 0.553487 -2.403338 -12.203883 -12.922226 1.379871 0.934578 3.913566 -1.548748 -9.095869 1.082474 -2.147400 -0.000000 -68.347500
3.868427 17.297847 1.397990 19.079790 -75.098889 -3.940530 -9.328345 2.512156 4.871264 -10.942442 -6.658924 -18.863529 -2.583343 -1.028672 3.955558 0.734526 5.248777 0.326032 1.017900 -0.000000 -35.172500 11.122046 -0.594686 0.213887 -2.642644 -13.720766 -12.152949 1.287939 0.950980 3.737315 -1.819461 -10.521212 0.782651 -2.369700 0.000000 -67.865200
3.847006 17.289434 1.403724 17.757804 -72.035937 -2.494083 -9.247188 2.457848 5.249737 -10.961389 -8.679324 -18.724715 -2.628485 -1.037901 3.560063 0.589688 4.447162 1.043426 0.978700 0.000000 -35.706900 11.168548 -0.549401 -0.128971 -2.907846 -15.253740 -11.343533 1.194255 0.955220 3.578409 -2.093034 -11.948245 0.508361 -2.586400 -0.000000 -67.392300
3.826932 17.280304 1.408872 16.821777 -68.934532 -1.458301 -9.155656 2.389012 5.619521 -10.976471 -10.684009 -18.530999 -2.683114 -1.047905 3.134850 0.443568 3.632865 1.792905 0.922100 -0.000001 -36.234000 11.221844 -0.512145 -0.471524 -3.189824 -16.784379 -10.497282 1.100715 0.950572 3.429872 -2.367057 -13.375943 0.266476 -2.801500 0.000000 -66.910899
3.808487 17.270649 1.413257 16.124929 -65.819060 -0.690846 -9.054609 2.308694 5.977781 -10.990151 -12.654841 -18.285506 -2.747250 -1.057088 2.688909 0.297194 2.802508 2.566322 0.845300 -0.000000 -36.754500 11.281660 -0.481949 -0.813285 -3.486215 -18.304972 -9.610546 1.008484 0.939360 3.281922 -2.638636 -14.799021 0.063283 -3.017800 -0.000000 -66.410900
